<?xml version="1.0" standalone="no"?>
<!DOCTYPE svg PUBLIC "-//W3C//DTD SVG 20010904//EN"
 "http://www.w3.org/TR/2001/REC-SVG-20010904/DTD/svg10.dtd">
<svg version="1.0" xmlns="http://www.w3.org/2000/svg"
 width="1755.000000pt" height="856.000000pt" viewBox="0 0 1755.000000 856.000000"
 preserveAspectRatio="xMidYMid meet">

<g transform="translate(0.000000,856.000000) scale(0.100000,-0.100000)"
fill="#000000" stroke="none">
<path d="M9764 8405 c-133 -132 -161 -177 -419 -678 -82 -161 -112 -210 -132
-218 -33 -12 -834 -12 -868 1 -18 7 -34 27 -52 67 -81 181 -177 371 -232 458
-128 204 -251 372 -291 399 -22 14 -41 26 -44 26 -2 0 -6 -181 -9 -402 -4
-321 -10 -438 -26 -573 -85 -696 -254 -1174 -551 -1565 -238 -312 -632 -510
-1050 -526 -283 -12 -497 50 -745 213 -363 240 -565 515 -646 883 -30 135 -32
371 -5 525 51 283 167 580 360 915 44 78 61 116 52 118 -24 5 -694 -211 -966
-312 -1071 -397 -1989 -910 -2688 -1503 -463 -392 -856 -908 -1052 -1378 -23
-55 -47 -113 -54 -130 -52 -117 -115 -362 -148 -565 -20 -125 -23 -180 -22
-400 0 -287 15 -405 80 -668 32 -132 97 -337 129 -407 8 -16 28 -64 45 -105
80 -193 228 -437 384 -635 98 -125 406 -433 546 -547 547 -444 1158 -776 1900
-1033 133 -46 432 -136 436 -132 2 1 -24 50 -56 109 -189 342 -278 525 -334
687 -142 406 -102 777 104 981 99 97 236 155 465 196 135 24 429 24 570 0 450
-76 825 -270 1184 -611 50 -48 100 -102 112 -121 11 -19 24 -34 28 -34 3 0 28
44 55 98 107 216 281 437 422 538 78 55 193 109 276 129 84 20 251 19 340 -1
529 -121 1150 -783 1793 -1912 66 -116 122 -211 125 -212 3 0 36 55 74 123
446 786 877 1362 1261 1685 222 187 465 305 680 332 237 29 474 -68 656 -268
92 -103 233 -306 285 -412 26 -52 49 -97 50 -99 2 -2 30 25 61 60 301 339 742
600 1157 684 179 36 350 47 536 35 210 -14 319 -38 436 -95 164 -79 271 -200
330 -370 27 -75 28 -90 28 -245 0 -193 -18 -293 -90 -511 -51 -153 -182 -427
-298 -624 -51 -88 -72 -131 -63 -133 40 -9 560 167 841 284 716 299 1293 670
1736 1113 352 352 574 680 733 1081 138 347 192 641 191 1035 0 205 -4 275
-22 392 -136 877 -650 1647 -1555 2329 -599 452 -1381 874 -2222 1199 -362
140 -1092 381 -1130 373 -12 -2 -5 -20 30 -78 123 -198 225 -419 306 -660 78
-235 92 -321 93 -555 1 -182 -2 -210 -26 -310 -46 -195 -138 -371 -276 -531
-176 -203 -527 -432 -762 -496 -75 -20 -107 -23 -285 -23 -173 0 -214 3 -304
23 -431 97 -731 329 -989 767 -122 206 -256 609 -321 960 -55 301 -72 500 -80
945 l-6 385 -71 -70z m36 -35 c0 -5 -4 -10 -10 -10 -5 0 -10 5 -10 10 0 6 5
10 10 10 6 0 10 -4 10 -10z m-2020 -510 c0 -5 -4 -10 -10 -10 -5 0 -10 5 -10
10 0 6 5 10 10 10 6 0 10 -4 10 -10z m-2930 -120 c0 -5 -4 -10 -10 -10 -5 0
-10 5 -10 10 0 6 5 10 10 10 6 0 10 -4 10 -10z m8385 -140 c-3 -5 -10 -10 -16
-10 -5 0 -9 5 -9 10 0 6 7 10 16 10 8 0 12 -4 9 -10z m-5125 -120 c0 -5 -4
-10 -10 -10 -5 0 -10 5 -10 10 0 6 5 10 10 10 6 0 10 -4 10 -10z m4840 -20 c0
-5 -4 -10 -10 -10 -5 0 -10 5 -10 10 0 6 5 10 10 10 6 0 10 -4 10 -10z m500
-90 c0 -5 -4 -10 -10 -10 -5 0 -10 5 -10 10 0 6 5 10 10 10 6 0 10 -4 10 -10z
m-85 -29 c3 -5 1 -12 -5 -16 -5 -3 -10 1 -10 9 0 18 6 21 15 7z m65 -81 c0 -5
-4 -10 -10 -10 -5 0 -10 5 -10 10 0 6 5 10 10 10 6 0 10 -4 10 -10z m-10166
-121 c-3 -5 -10 -7 -15 -3 -5 3 -7 10 -3 15 3 5 10 7 15 3 5 -3 7 -10 3 -15z
m6206 -39 c0 -5 -4 -10 -10 -10 -5 0 -10 5 -10 10 0 6 5 10 10 10 6 0 10 -4
10 -10z m-870 -254 c0 -11 -19 -15 -25 -6 -3 5 1 10 9 10 9 0 16 -2 16 -4z
m-4750 -86 c0 -5 -5 -10 -11 -10 -5 0 -7 5 -4 10 3 6 8 10 11 10 2 0 4 -4 4
-10z m4398 -300 l380 -185 -57 -6 c-31 -4 -128 -7 -217 -8 l-161 -1 -140 158
c-203 228 -209 236 -197 231 7 -2 183 -87 392 -189z m1285 -7 l-169 -188 -150
-3 c-82 -1 -180 1 -218 5 l-69 8 384 186 c211 103 386 185 387 184 2 -2 -72
-88 -165 -192z m5323 81 c-5 -22 -3 -41 4 -49 18 -22 7 -37 -28 -40 -37 -3
-41 11 -12 45 11 13 20 33 20 45 0 20 7 35 18 35 2 0 1 -16 -2 -36z m-455 6
c24 0 25 -19 2 -36 -11 -8 -13 -13 -6 -14 7 0 -5 -19 -27 -41 -22 -23 -42 -40
-43 -38 -2 2 -8 16 -15 32 -6 15 -18 27 -27 27 -21 0 -19 13 5 28 12 7 18 17
15 22 -11 18 25 23 38 6 9 -11 16 -13 27 -6 13 8 12 10 -2 10 -10 0 -18 5 -18
11 0 6 7 8 16 5 9 -3 24 -6 35 -6z m-1 -130 c0 -5 -4 -10 -10 -10 -5 0 -10 5
-10 10 0 6 5 10 10 10 6 0 10 -4 10 -10z m-10895 -139 c165 -40 309 -119 433
-235 46 -44 103 -108 128 -141 256 -360 240 -842 -41 -1185 -31 -38 -76 -85
-100 -105 -43 -35 -45 -35 -69 -19 l-25 16 6 381 c6 382 6 382 -16 401 -26 23
-27 42 -3 48 16 5 18 11 12 44 -11 61 -21 83 -35 78 -8 -3 -20 7 -29 23 -15
27 -15 27 -16 -43 l0 -71 -48 5 -49 4 -57 -81 c-49 -70 -60 -80 -79 -76 -13 4
-89 21 -170 39 -81 18 -149 35 -151 37 -2 2 -53 85 -113 184 -60 99 -151 237
-201 308 -82 112 -97 127 -122 127 -15 0 -37 3 -47 6 -10 4 8 -20 40 -52 35
-37 57 -68 57 -82 0 -15 -4 -21 -12 -16 -8 5 -9 2 -5 -10 6 -14 3 -17 -8 -12
-13 4 -14 2 -5 -14 16 -29 12 -35 -10 -15 -30 27 -33 13 -5 -28 31 -44 31 -46
3 -40 -19 4 -17 0 12 -26 30 -26 32 -31 15 -31 -16 -1 -10 -10 30 -46 l50 -45
-40 7 c-22 3 -58 10 -80 14 -22 5 -41 7 -43 5 -2 -2 24 -18 57 -35 34 -18 61
-36 61 -40 0 -4 -12 -11 -27 -15 l-28 -7 44 -26 c38 -22 41 -27 25 -33 -18 -7
-18 -8 1 -9 20 -1 20 -1 0 -9 -16 -7 -9 -13 43 -36 62 -28 73 -39 50 -48 -7
-2 8 -10 35 -17 51 -13 72 -30 37 -30 -30 0 -16 -17 23 -26 l32 -8 -35 -6 -35
-7 39 -17 c41 -19 45 -33 4 -17 -23 9 -576 437 -622 481 -19 19 -19 20 30 102
63 107 230 276 329 334 124 72 252 116 400 138 62 9 253 -4 330 -23z m10498
-23 c-3 -17 -13 -28 -29 -31 -37 -7 -38 5 -2 34 18 15 34 27 35 26 0 -1 -1
-14 -4 -29z m-769 -291 c27 -19 17 -58 -17 -70 -53 -17 -105 46 -59 72 24 14
55 13 76 -2z m-144 -75 c13 -11 20 -24 16 -30 -18 -29 -106 0 -106 34 0 21 63
18 90 -4z m-2600 -302 c0 -23 -4 -30 -20 -30 -16 0 -20 7 -20 30 0 23 4 30 20
30 16 0 20 -7 20 -30z m-1345 -100 c0 -18 -6 -26 -22 -28 -20 -3 -23 1 -23 28
0 27 3 31 23 28 16 -2 22 -10 22 -28z m65 0 c0 -23 -4 -30 -20 -30 -16 0 -20
7 -20 30 0 23 4 30 20 30 16 0 20 -7 20 -30z m-4370 -175 c0 -20 -5 -25 -24
-25 -19 0 -22 4 -18 25 3 16 11 25 23 25 14 0 19 -7 19 -25z m7596 10 c9 -21
-14 -45 -43 -45 -25 0 -39 20 -29 45 7 20 65 20 72 0z m-1021 -55 c0 -18 -7
-26 -23 -28 -19 -3 -22 1 -22 28 0 27 3 31 22 28 16 -2 23 -10 23 -28z m1125
17 c0 -20 -21 -37 -46 -37 -33 0 -38 16 -12 34 27 19 58 21 58 3z m-6270 -107
c0 -23 -4 -30 -20 -30 -16 0 -20 7 -20 30 0 23 4 30 20 30 16 0 20 -7 20 -30z
m70 0 c0 -23 -4 -30 -20 -30 -23 0 -35 22 -26 45 3 8 15 15 26 15 16 0 20 -7
20 -30z m78 3 c-2 -22 -9 -29 -30 -31 -25 -3 -28 0 -28 27 0 28 3 31 31 31 27
0 30 -3 27 -27z m72 -3 c0 -23 -4 -30 -20 -30 -16 0 -20 7 -20 30 0 23 4 30
20 30 16 0 20 -7 20 -30z m0 -90 c0 -23 -4 -30 -20 -30 -16 0 -20 7 -20 30 0
23 4 30 20 30 16 0 20 -7 20 -30z m4790 -140 c0 -23 -4 -30 -20 -30 -16 0 -20
7 -20 30 0 23 4 30 20 30 16 0 20 -7 20 -30z m-302 -122 c3 -24 0 -28 -22 -28
-22 0 -26 4 -26 31 0 26 3 30 23 27 16 -2 23 -11 25 -30z m-5918 -68 c0 -22
-5 -30 -18 -30 -26 0 -30 6 -24 35 7 38 42 34 42 -5z m5640 -40 c0 -23 -4 -30
-20 -30 -11 0 -23 7 -26 15 -9 23 3 45 26 45 16 0 20 -7 20 -30z m-1015 -10
c0 -18 -6 -26 -22 -28 -20 -3 -23 1 -23 28 0 27 3 31 23 28 16 -2 22 -10 22
-28z m-4745 -45 c0 -20 -5 -25 -25 -25 -20 0 -25 5 -25 25 0 20 5 25 25 25 20
0 25 -5 25 -25z m-2590 -150 c85 -20 122 -35 117 -49 -44 -109 -37 -103 -107
-82 -126 38 -285 24 -407 -35 -97 -48 -209 -161 -256 -260 -57 -119 -72 -251
-42 -378 48 -203 237 -384 440 -422 68 -13 214 -7 263 11 l32 12 0 234 0 233
-142 3 -143 3 0 60 0 60 203 3 202 2 0 -344 0 -344 -57 -20 c-101 -37 -146
-45 -248 -45 -212 1 -369 71 -516 231 -71 78 -141 214 -160 309 -17 91 -7 282
19 363 58 178 212 344 391 419 118 50 286 65 411 36z m2655 -19 c172 -58 319
-186 401 -348 87 -172 89 -429 4 -600 -81 -164 -229 -298 -389 -354 -260 -90
-524 -31 -716 161 -138 138 -194 263 -203 451 -9 216 49 367 202 520 74 74
107 99 176 133 116 57 189 72 330 67 92 -3 131 -9 195 -30z m2765 -41 l0 -65
-175 0 -175 0 0 -610 0 -610 -60 0 -60 0 -2 433 c-2 237 -3 512 -3 610 l0 177
-177 0 -178 0 0 65 0 65 415 0 415 0 0 -65z m1770 -240 l0 -305 340 0 340 0 0
305 0 306 63 -3 62 -3 3 -672 2 -673 -65 0 -65 0 0 305 0 305 -340 0 -340 0 0
-305 0 -305 -65 0 -65 0 0 675 0 675 65 0 65 0 0 -305z m3440 -370 l0 -675
-65 0 -65 0 0 165 0 165 -268 0 -267 0 -104 -165 -104 -165 -75 0 -74 0 14 23
c8 12 194 306 413 652 219 347 405 640 413 653 13 20 22 22 98 22 l84 0 0
-675z m2090 81 c140 -327 258 -591 262 -588 6 6 427 975 486 1120 l26 63 63
-3 63 -3 0 -560 c0 -308 0 -611 0 -672 l0 -113 -60 0 -60 0 -2 517 -3 517
-222 -515 -222 -514 -71 0 -72 0 -221 514 -222 514 -3 -517 -2 -516 -65 0 -65
0 0 675 0 675 68 0 67 0 255 -594z m-6060 474 c0 -23 -4 -30 -20 -30 -16 0
-20 7 -20 30 0 23 4 30 20 30 16 0 20 -7 20 -30z m-2520 -145 c0 -18 -5 -25
-20 -25 -15 0 -20 7 -20 25 0 18 5 25 20 25 15 0 20 -7 20 -25z m80 0 c0 -19
-5 -25 -22 -25 -18 0 -23 6 -23 25 0 19 5 25 23 25 17 0 22 -6 22 -25z m2440
-10 c0 -18 -5 -25 -20 -25 -15 0 -20 7 -20 25 0 18 5 25 20 25 15 0 20 -7 20
-25z m-920 -135 c0 -23 -4 -30 -20 -30 -16 0 -20 7 -20 30 0 23 4 30 20 30 16
0 20 -7 20 -30z m78 3 c-2 -20 -9 -28 -23 -28 -14 0 -21 8 -23 28 -3 23 0 27
23 27 23 0 26 -4 23 -27z m-2070 -165 c3 -24 0 -28 -22 -28 -22 0 -26 4 -26
31 0 26 3 30 23 27 16 -2 23 -11 25 -30z m4312 -278 c0 -23 -4 -30 -20 -30
-16 0 -20 7 -20 30 0 23 4 30 20 30 16 0 20 -7 20 -30z m-4040 -130 c0 -23 -4
-30 -20 -30 -16 0 -20 7 -20 30 0 23 4 30 20 30 16 0 20 -7 20 -30z m4040
-320 c0 -23 -4 -30 -20 -30 -16 0 -20 7 -20 30 0 23 4 30 20 30 16 0 20 -7 20
-30z m-1280 -185 c0 -20 -5 -25 -25 -25 -20 0 -25 5 -25 25 0 20 5 25 25 25
20 0 25 -5 25 -25z m-1800 -25 c0 -23 -4 -30 -20 -30 -16 0 -20 7 -20 30 0 23
4 30 20 30 16 0 20 -7 20 -30z m70 0 c0 -25 -4 -30 -25 -30 -21 0 -25 5 -25
30 0 25 4 30 25 30 21 0 25 -5 25 -30z m-1400 -10 c0 -25 -4 -30 -25 -30 -21
0 -25 5 -25 30 0 25 4 30 25 30 21 0 25 -5 25 -30z m570 -1 c0 -26 -3 -30 -22
-27 -16 2 -22 9 -21 26 1 32 1 32 23 32 16 0 20 -7 20 -31z m-1470 -9 c0 -23
-4 -30 -20 -30 -16 0 -20 7 -20 30 0 23 4 30 20 30 16 0 20 -7 20 -30z m2780
-110 c0 -23 -4 -30 -20 -30 -16 0 -20 7 -20 30 0 23 4 30 20 30 16 0 20 -7 20
-30z m915 -210 c0 -18 -6 -26 -22 -28 -20 -3 -23 1 -23 28 0 27 3 31 23 28 16
-2 22 -10 22 -28z m75 0 c0 -23 -4 -30 -20 -30 -16 0 -20 7 -20 30 0 23 4 30
20 30 16 0 20 -7 20 -30z m708 3 c-2 -20 -9 -29 -25 -31 -20 -3 -23 1 -23 27
0 27 4 31 26 31 22 0 25 -4 22 -27z m152 -3 c0 -23 -4 -30 -20 -30 -11 0 -23
7 -26 15 -9 23 3 45 26 45 16 0 20 -7 20 -30z m80 0 c0 -25 -4 -30 -25 -30
-21 0 -25 5 -25 30 0 25 4 30 25 30 21 0 25 -5 25 -30z m70 0 c0 -23 -4 -30
-20 -30 -16 0 -20 7 -20 30 0 23 4 30 20 30 16 0 20 -7 20 -30z m-4580 -45 c0
-18 -5 -25 -20 -25 -15 0 -20 7 -20 25 0 18 5 25 20 25 15 0 20 -7 20 -25z
m2270 -10 c0 -18 -5 -25 -20 -25 -15 0 -20 7 -20 25 0 18 5 25 20 25 15 0 20
-7 20 -25z m-1300 -35 c0 -23 -4 -30 -20 -30 -16 0 -20 7 -20 30 0 23 4 30 20
30 16 0 20 -7 20 -30z m-90 -75 c0 -20 -5 -25 -25 -25 -20 0 -25 5 -25 25 0
20 5 25 25 25 20 0 25 -5 25 -25z m529 -122 c3 -2 -1 -9 -7 -15 -13 -13 -62 4
-62 22 0 8 58 3 69 -7z m1501 -43 c0 -23 -4 -30 -20 -30 -16 0 -20 7 -20 30 0
23 4 30 20 30 16 0 20 -7 20 -30z m2200 -70 c0 -23 -4 -30 -20 -30 -16 0 -20
7 -20 30 0 23 4 30 20 30 16 0 20 -7 20 -30z m-4900 -75 c0 -18 -5 -25 -20
-25 -15 0 -20 7 -20 25 0 18 5 25 20 25 15 0 20 -7 20 -25z m90 0 c0 -20 -5
-25 -25 -25 -20 0 -25 5 -25 25 0 20 5 25 25 25 20 0 25 -5 25 -25z m500 0 c0
-20 -5 -25 -25 -25 -20 0 -25 5 -25 25 0 20 5 25 25 25 20 0 25 -5 25 -25z
m70 0 c0 -18 -5 -25 -20 -25 -15 0 -20 7 -20 25 0 18 5 25 20 25 15 0 20 -7
20 -25z m3150 -155 c0 -23 -4 -30 -20 -30 -16 0 -20 7 -20 30 0 23 4 30 20 30
16 0 20 -7 20 -30z m-1450 -150 c0 -25 -4 -30 -25 -30 -20 0 -25 5 -25 23 0
28 7 37 32 37 13 0 18 -8 18 -30z m88 -3 c3 -23 0 -27 -22 -27 -21 0 -26 5
-26 23 0 13 3 27 7 31 15 14 38 0 41 -27z m90 0 c3 -23 0 -27 -22 -27 -21 0
-26 5 -26 23 0 13 3 27 7 31 15 14 38 0 41 -27z m1162 3 c0 -23 -4 -30 -20
-30 -16 0 -20 7 -20 30 0 23 4 30 20 30 16 0 20 -7 20 -30z m-3490 -180 c0
-23 -4 -30 -20 -30 -16 0 -20 7 -20 30 0 23 4 30 20 30 16 0 20 -7 20 -30z
m3950 -165 c0 -20 -5 -25 -25 -25 -20 0 -25 5 -25 25 0 20 5 25 25 25 20 0 25
-5 25 -25z m-980 -440 c0 -20 -5 -25 -25 -25 -20 0 -25 5 -25 25 0 20 5 25 25
25 20 0 25 -5 25 -25z m0 -220 c0 -20 -5 -25 -25 -25 -20 0 -25 5 -25 25 0 20
5 25 25 25 20 0 25 -5 25 -25z m250 -366 c0 -26 -3 -30 -22 -27 -17 2 -24 11
-26 31 -3 23 0 27 22 27 22 0 26 -4 26 -31z"/>
<path d="M4693 4390 c-311 -56 -520 -356 -460 -661 24 -121 66 -200 157 -291
126 -127 251 -175 430 -165 154 8 267 60 376 174 178 185 203 489 58 700 -76
110 -197 197 -319 229 -69 19 -180 25 -242 14z"/>
<path d="M12623 3977 l-223 -352 222 -3 c121 -1 223 -1 225 1 2 2 2 162 1 355
l-3 351 -222 -352z"/>
</g>
</svg>
